<mxfile host="Electron" modified="2024-01-20T09:51:40.031Z" agent="Mozilla/5.0 (Windows NT 10.0; Win64; x64) AppleWebKit/537.36 (KHTML, like Gecko) draw.io/22.1.2 Chrome/114.0.5735.289 Electron/25.9.4 Safari/537.36" etag="BoPYTlv-m7e7_X5Go0Ck" version="22.1.2" type="device">
  <diagram name="第 1 页" id="ABTM-sAJT_RgifywPAnr">
    <mxGraphModel dx="593" dy="608" grid="1" gridSize="10" guides="1" tooltips="1" connect="1" arrows="1" fold="1" page="1" pageScale="1" pageWidth="100000" pageHeight="100000" math="0" shadow="0">
      <root>
        <mxCell id="0" />
        <mxCell id="1" parent="0" />
        <mxCell id="EOn5aaD6ZxGx0CJ_GrXM-7" style="edgeStyle=orthogonalEdgeStyle;rounded=0;orthogonalLoop=1;jettySize=auto;html=1;entryX=0;entryY=0.5;entryDx=0;entryDy=0;" edge="1" parent="1" source="EOn5aaD6ZxGx0CJ_GrXM-1" target="EOn5aaD6ZxGx0CJ_GrXM-2">
          <mxGeometry relative="1" as="geometry" />
        </mxCell>
        <mxCell id="EOn5aaD6ZxGx0CJ_GrXM-8" style="edgeStyle=orthogonalEdgeStyle;rounded=0;orthogonalLoop=1;jettySize=auto;html=1;entryX=0;entryY=0.5;entryDx=0;entryDy=0;" edge="1" parent="1" source="EOn5aaD6ZxGx0CJ_GrXM-1" target="EOn5aaD6ZxGx0CJ_GrXM-3">
          <mxGeometry relative="1" as="geometry" />
        </mxCell>
        <mxCell id="EOn5aaD6ZxGx0CJ_GrXM-1" value="课程达成度" style="whiteSpace=wrap;html=1;fontStyle=1;fontFamily=Comic Sans MS;strokeWidth=2;fontSize=8;" vertex="1" parent="1">
          <mxGeometry x="510" y="640" width="50" height="20" as="geometry" />
        </mxCell>
        <mxCell id="EOn5aaD6ZxGx0CJ_GrXM-9" style="edgeStyle=orthogonalEdgeStyle;rounded=0;orthogonalLoop=1;jettySize=auto;html=1;exitX=1;exitY=0.5;exitDx=0;exitDy=0;entryX=0;entryY=0.5;entryDx=0;entryDy=0;" edge="1" parent="1" source="EOn5aaD6ZxGx0CJ_GrXM-2" target="EOn5aaD6ZxGx0CJ_GrXM-4">
          <mxGeometry relative="1" as="geometry" />
        </mxCell>
        <mxCell id="EOn5aaD6ZxGx0CJ_GrXM-10" style="edgeStyle=orthogonalEdgeStyle;rounded=0;orthogonalLoop=1;jettySize=auto;html=1;exitX=1;exitY=0.5;exitDx=0;exitDy=0;entryX=0;entryY=0.5;entryDx=0;entryDy=0;" edge="1" parent="1" source="EOn5aaD6ZxGx0CJ_GrXM-2" target="EOn5aaD6ZxGx0CJ_GrXM-5">
          <mxGeometry relative="1" as="geometry" />
        </mxCell>
        <mxCell id="EOn5aaD6ZxGx0CJ_GrXM-11" style="edgeStyle=orthogonalEdgeStyle;rounded=0;orthogonalLoop=1;jettySize=auto;html=1;exitX=1;exitY=0.5;exitDx=0;exitDy=0;entryX=0;entryY=0.5;entryDx=0;entryDy=0;" edge="1" parent="1" source="EOn5aaD6ZxGx0CJ_GrXM-2" target="EOn5aaD6ZxGx0CJ_GrXM-6">
          <mxGeometry relative="1" as="geometry" />
        </mxCell>
        <mxCell id="EOn5aaD6ZxGx0CJ_GrXM-2" value="平时成绩(percentage_1%)" style="whiteSpace=wrap;html=1;fontStyle=1;fontFamily=Comic Sans MS;strokeWidth=2;fontSize=8;" vertex="1" parent="1">
          <mxGeometry x="620" y="590" width="100" height="20" as="geometry" />
        </mxCell>
        <mxCell id="EOn5aaD6ZxGx0CJ_GrXM-13" style="edgeStyle=orthogonalEdgeStyle;rounded=0;orthogonalLoop=1;jettySize=auto;html=1;exitX=1;exitY=0.5;exitDx=0;exitDy=0;entryX=0;entryY=0.5;entryDx=0;entryDy=0;" edge="1" parent="1" source="EOn5aaD6ZxGx0CJ_GrXM-3" target="EOn5aaD6ZxGx0CJ_GrXM-12">
          <mxGeometry relative="1" as="geometry" />
        </mxCell>
        <mxCell id="EOn5aaD6ZxGx0CJ_GrXM-3" value="期末成绩(percentage_2%)" style="whiteSpace=wrap;html=1;fontStyle=1;fontFamily=Comic Sans MS;strokeWidth=2;fontSize=8;" vertex="1" parent="1">
          <mxGeometry x="620" y="690" width="100" height="20" as="geometry" />
        </mxCell>
        <mxCell id="EOn5aaD6ZxGx0CJ_GrXM-4" value="课程考勤与讨论" style="whiteSpace=wrap;html=1;fontStyle=1;fontFamily=Comic Sans MS;strokeWidth=2;fontSize=8;" vertex="1" parent="1">
          <mxGeometry x="780" y="540" width="100" height="20" as="geometry" />
        </mxCell>
        <mxCell id="EOn5aaD6ZxGx0CJ_GrXM-5" value="平时作业/课后小测" style="whiteSpace=wrap;html=1;fontStyle=1;fontFamily=Comic Sans MS;strokeWidth=2;fontSize=8;" vertex="1" parent="1">
          <mxGeometry x="780" y="590" width="100" height="20" as="geometry" />
        </mxCell>
        <mxCell id="EOn5aaD6ZxGx0CJ_GrXM-6" value="期中考试" style="whiteSpace=wrap;html=1;fontStyle=1;fontFamily=Comic Sans MS;strokeWidth=2;fontSize=8;" vertex="1" parent="1">
          <mxGeometry x="780" y="640" width="100" height="20" as="geometry" />
        </mxCell>
        <mxCell id="EOn5aaD6ZxGx0CJ_GrXM-12" value="题目1" style="whiteSpace=wrap;html=1;fontStyle=1;fontFamily=Comic Sans MS;strokeWidth=2;fontSize=8;" vertex="1" parent="1">
          <mxGeometry x="780" y="690" width="100" height="20" as="geometry" />
        </mxCell>
        <mxCell id="EOn5aaD6ZxGx0CJ_GrXM-15" value="课程目标1" style="whiteSpace=wrap;html=1;fontStyle=1;fontFamily=Comic Sans MS;strokeWidth=2;fontSize=8;" vertex="1" parent="1">
          <mxGeometry x="900" y="470" width="100" height="20" as="geometry" />
        </mxCell>
        <mxCell id="EOn5aaD6ZxGx0CJ_GrXM-17" value="题目2" style="whiteSpace=wrap;html=1;fontStyle=1;fontFamily=Comic Sans MS;strokeWidth=2;fontSize=8;" vertex="1" parent="1">
          <mxGeometry x="780" y="710" width="100" height="20" as="geometry" />
        </mxCell>
        <mxCell id="EOn5aaD6ZxGx0CJ_GrXM-18" value="题目3" style="whiteSpace=wrap;html=1;fontStyle=1;fontFamily=Comic Sans MS;strokeWidth=2;fontSize=8;" vertex="1" parent="1">
          <mxGeometry x="780" y="730" width="100" height="20" as="geometry" />
        </mxCell>
        <mxCell id="EOn5aaD6ZxGx0CJ_GrXM-19" value="题目..." style="whiteSpace=wrap;html=1;fontStyle=1;fontFamily=Comic Sans MS;strokeWidth=2;fontSize=8;" vertex="1" parent="1">
          <mxGeometry x="780" y="750" width="100" height="20" as="geometry" />
        </mxCell>
        <mxCell id="EOn5aaD6ZxGx0CJ_GrXM-20" value="课程目标2" style="whiteSpace=wrap;html=1;fontStyle=1;fontFamily=Comic Sans MS;strokeWidth=2;fontSize=8;" vertex="1" parent="1">
          <mxGeometry x="1030" y="470" width="100" height="20" as="geometry" />
        </mxCell>
        <mxCell id="EOn5aaD6ZxGx0CJ_GrXM-21" value="课程目标3" style="whiteSpace=wrap;html=1;fontStyle=1;fontFamily=Comic Sans MS;strokeWidth=2;fontSize=8;" vertex="1" parent="1">
          <mxGeometry x="1160" y="470" width="100" height="20" as="geometry" />
        </mxCell>
        <mxCell id="EOn5aaD6ZxGx0CJ_GrXM-22" value="课程目标4" style="whiteSpace=wrap;html=1;fontStyle=1;fontFamily=Comic Sans MS;strokeWidth=2;fontSize=8;" vertex="1" parent="1">
          <mxGeometry x="1290" y="470" width="100" height="20" as="geometry" />
        </mxCell>
        <mxCell id="EOn5aaD6ZxGx0CJ_GrXM-23" value="满分" style="whiteSpace=wrap;html=1;fontStyle=1;fontFamily=Comic Sans MS;strokeWidth=2;fontSize=8;" vertex="1" parent="1">
          <mxGeometry x="900" y="490" width="50" height="20" as="geometry" />
        </mxCell>
        <mxCell id="EOn5aaD6ZxGx0CJ_GrXM-24" value="得分" style="whiteSpace=wrap;html=1;fontStyle=1;fontFamily=Comic Sans MS;strokeWidth=2;fontSize=8;" vertex="1" parent="1">
          <mxGeometry x="950" y="490" width="50" height="20" as="geometry" />
        </mxCell>
        <mxCell id="EOn5aaD6ZxGx0CJ_GrXM-25" value="满分" style="whiteSpace=wrap;html=1;fontStyle=1;fontFamily=Comic Sans MS;strokeWidth=2;fontSize=8;" vertex="1" parent="1">
          <mxGeometry x="1030" y="490" width="50" height="20" as="geometry" />
        </mxCell>
        <mxCell id="EOn5aaD6ZxGx0CJ_GrXM-26" value="得分" style="whiteSpace=wrap;html=1;fontStyle=1;fontFamily=Comic Sans MS;strokeWidth=2;fontSize=8;" vertex="1" parent="1">
          <mxGeometry x="1080" y="490" width="50" height="20" as="geometry" />
        </mxCell>
        <mxCell id="EOn5aaD6ZxGx0CJ_GrXM-27" value="满分" style="whiteSpace=wrap;html=1;fontStyle=1;fontFamily=Comic Sans MS;strokeWidth=2;fontSize=8;" vertex="1" parent="1">
          <mxGeometry x="1160" y="490" width="50" height="20" as="geometry" />
        </mxCell>
        <mxCell id="EOn5aaD6ZxGx0CJ_GrXM-28" value="得分" style="whiteSpace=wrap;html=1;fontStyle=1;fontFamily=Comic Sans MS;strokeWidth=2;fontSize=8;" vertex="1" parent="1">
          <mxGeometry x="1210" y="490" width="50" height="20" as="geometry" />
        </mxCell>
        <mxCell id="EOn5aaD6ZxGx0CJ_GrXM-29" value="满分" style="whiteSpace=wrap;html=1;fontStyle=1;fontFamily=Comic Sans MS;strokeWidth=2;fontSize=8;" vertex="1" parent="1">
          <mxGeometry x="1290" y="490" width="50" height="20" as="geometry" />
        </mxCell>
        <mxCell id="EOn5aaD6ZxGx0CJ_GrXM-30" value="得分" style="whiteSpace=wrap;html=1;fontStyle=1;fontFamily=Comic Sans MS;strokeWidth=2;fontSize=8;" vertex="1" parent="1">
          <mxGeometry x="1340" y="490" width="50" height="20" as="geometry" />
        </mxCell>
      </root>
    </mxGraphModel>
  </diagram>
</mxfile>
